<svg height="488pt" viewBox="0 0 488 488" width="488pt" xmlns="http://www.w3.org/2000/svg"><g fill="#263238"><path d="m76 224h-40c-2.207031 0-4-1.792969-4-4s1.792969-4 4-4h40c2.207031 0 4 1.792969 4 4s-1.792969 4-4 4zm0 0"/><path d="m20 224h-8c-2.207031 0-4-1.792969-4-4s1.792969-4 4-4h8c2.207031 0 4 1.792969 4 4s-1.792969 4-4 4zm0 0"/><path d="m312 192h-40c-2.207031 0-4-1.792969-4-4s1.792969-4 4-4h40c2.207031 0 4 1.792969 4 4s-1.792969 4-4 4zm0 0"/><path d="m336 192h-8c-2.207031 0-4-1.792969-4-4s1.792969-4 4-4h8c2.207031 0 4 1.792969 4 4s-1.792969 4-4 4zm0 0"/><path d="m484 488c-2.207031 0-4-1.792969-4-4v-28c0-8.824219-7.175781-16-16-16h-440c-8.824219 0-16 7.175781-16 16v28c0 2.207031-1.792969 4-4 4s-4-1.792969-4-4v-28c0-13.230469 10.769531-24 24-24h440c13.230469 0 24 10.769531 24 24v28c0 2.207031-1.792969 4-4 4zm0 0"/><path d="m164 224c-37.273438 0-69.871094-24.496094-80.425781-60-13.039063-.222656-23.574219-10.902344-23.574219-24s10.535156-23.777344 23.574219-24c10.554687-35.503906 43.152343-60 80.425781-60s69.871094 24.496094 80.425781 60c13.039063.222656 23.574219 10.902344 23.574219 24s-10.535156 23.777344-23.574219 24c-10.554687 35.503906-43.152343 60-80.425781 60zm-77.929688-68.183594c1.875 0 3.90625 1.160156 4.355469 2.945313 8.574219 33.703125 38.832031 57.238281 73.574219 57.238281s65-23.535156 73.566406-57.238281c.496094-1.96875 2.335938-3.28125 4.394532-2.984375 1.046874.144531 1.535156.222656 2.039062.222656 8.824219 0 16-7.175781 16-16s-7.175781-16-16-16c-.503906 0-.992188.078125-1.480469.152344-2.039062.246094-4.449219-.921875-4.953125-2.90625-8.566406-33.710938-38.824218-57.246094-73.566406-57.246094s-65 23.535156-73.566406 57.238281c-.496094 1.96875-2.363282 3.242188-4.394532 2.984375-1.046874-.144531-1.535156-.222656-2.039062-.222656-8.824219 0-16 7.175781-16 16s7.175781 16 16 16c.503906 0 .992188-.078125 1.480469-.152344.191406-.015625.390625-.03125.589843-.03125zm0 0"/><path d="m244 424c-2.207031 0-4-1.792969-4-4v-28c0-2.207031 1.792969-4 4-4s4 1.792969 4 4v28c0 2.207031-1.792969 4-4 4zm0 0"/><path d="m115.472656 280c-.5625 0-1.128906-.121094-1.65625-.359375-1.320312-.59375-2.207031-1.855469-2.335937-3.304687l-3.207031-38.136719c-.144532-1.632813.726562-3.175781 2.191406-3.910157l19.734375-9.863281c1.824219-.914062 4-.320312 5.121093 1.359375l16 24c1.183594 1.773438.769532 4.167969-.953124 5.4375l-32.527344 24c-.6875.511719-1.527344.777344-2.367188.777344zm1.007813-39.769531 2.382812 28.296875 23.695313-17.488282-11.925782-17.886718zm0 0"/><path d="m212.449219 280c-.839844 0-1.679688-.265625-2.378907-.785156l-32.445312-24c-1.714844-1.269532-2.136719-3.664063-.953125-5.4375l16-24c1.121094-1.679688 3.3125-2.273438 5.121094-1.363282l19.734375 9.867188c1.464844.734375 2.335937 2.285156 2.191406 3.917969l-3.285156 38.136719c-.128906 1.449218-1.019532 2.703124-2.335938 3.304687-.53125.238281-1.089844.359375-1.648437.359375zm-27.007813-28.953125 23.636719 17.488281 2.441406-28.304687-14.144531-7.070313zm0 0"/><path d="m172 280h-16c-6.617188 0-12-5.382812-12-12v-8c0-6.617188 5.382812-12 12-12h16c6.617188 0 12 5.382812 12 12v8c0 6.617188-5.382812 12-12 12zm-16-24c-2.207031 0-4 1.800781-4 4v8c0 2.199219 1.792969 4 4 4h16c2.207031 0 4-1.800781 4-4v-8c0-2.199219-1.792969-4-4-4zm0 0"/><path d="m164 184c-11.753906 0-22.808594-4.574219-31.113281-12.886719-1.558594-1.5625-1.558594-4.097656 0-5.65625 1.5625-1.5625 4.097656-1.5625 5.65625 0 6.800781 6.808594 15.839843 10.542969 25.457031 10.542969s18.65625-3.742188 25.457031-10.542969c1.558594-1.5625 4.09375-1.5625 5.65625 0 1.558594 1.558594 1.558594 4.09375 0 5.65625-8.304687 8.3125-19.359375 12.886719-31.113281 12.886719zm0 0"/><path d="m178.046875 258.929688c-1.175781 0-2.304687-.523438-3.0625-1.433594-.472656-.558594-1.480469-1.496094-2.984375-1.496094h-16c-1.503906 0-2.511719.9375-2.992188 1.503906-.816406.960938-2.078124 1.550782-3.28125 1.425782-1.253906-.074219-2.40625-.730469-3.109374-1.777344l-17.953126-26.929688c-.433593-.664062-.664062-1.429687-.664062-2.222656v-14.703125c0-1.351563.679688-2.609375 1.816406-3.34375 1.128906-.753906 2.558594-.863281 3.792969-.320313 19.320313 8.457032 41.480469 8.457032 60.796875 0 1.242188-.535156 2.664062-.433593 3.792969.320313 1.136719.734375 1.816406 1.992187 1.816406 3.34375v14.703125c0 .792969-.230469 1.558594-.671875 2.214844l-17.953125 26.929687c-.695313 1.046875-1.847656 1.703125-3.109375 1.777344-.082031.007813-.152344.007813-.234375.007813zm-22.046875-10.929688h16c1.769531 0 3.496094.414062 5.070312 1.175781l14.929688-22.390625v-7.609375c-18 6.410157-38 6.410157-56 0v7.609375l14.929688 22.390625c1.574218-.761719 3.300781-1.175781 5.070312-1.175781zm0 0"/></g><path d="m88 140h-4v-40h24v20c0 11.046875-8.953125 20-20 20zm0 0" fill="#ffd740"/><path d="m88 144h-4c-2.207031 0-4-1.792969-4-4v-40c0-2.207031 1.792969-4 4-4h24c2.207031 0 4 1.792969 4 4v20c0 13.230469-10.769531 24-24 24zm0-8h.078125zm0-32v32c8.824219 0 16-7.175781 16-16v-16zm0 0" fill="#263238"/><path d="m220 100h-136v-4c0-33.136719 26.863281-60 60-60h42.761719c21.75 0 43.085937-5.910156 61.734375-17.105469l11.503906-6.894531v48c0 22.089844-17.910156 40-40 40zm0 0" fill="#ffd740"/><path d="m220 104h-136c-2.207031 0-4-1.792969-4-4v-4c0-35.289062 28.710938-64 64-64h42.761719c21.015625 0 41.652343-5.71875 59.679687-16.527344l11.503906-6.898437c1.238282-.742188 2.773438-.757813 4.03125-.054688 1.246094.703125 2.023438 2.039063 2.023438 3.480469v48c0 24.257812-19.734375 44-44 44zm-132-8h132c19.847656 0 36-16.152344 36-36v-40.9375l-5.441406 3.265625c-19.269532 11.558594-41.335938 17.671875-63.796875 17.671875h-42.761719c-30.878906 0-56 25.128906-56 56zm0 0" fill="#263238"/><path d="m220 100v20c0 11.046875 8.953125 20 20 20h4v-48.183594c-6.703125 5.0625-14.953125 8.183594-24 8.183594zm0 0" fill="#ffd740"/><path d="m244 144h-4c-13.230469 0-24-10.769531-24-24v-20c0-2.207031 1.792969-4 4-4 7.734375 0 15.199219-2.542969 21.59375-7.375 1.214844-.914062 2.839844-1.066406 4.191406-.386719 1.359375.671875 2.214844 2.066407 2.214844 3.578125v48.183594c0 2.207031-1.792969 4-4 4zm-20-40.183594v16.183594c0 8.824219 7.175781 16 16 16v-36.929688c-5.015625 2.625-10.414062 4.226563-16 4.746094zm0 0" fill="#263238"/><path d="m380 424c-2.207031 0-4-1.792969-4-4v-68h-40v68c0 2.207031-1.792969 4-4 4s-4-1.792969-4-4v-72c0-2.207031 1.792969-4 4-4h48c2.207031 0 4 1.792969 4 4v72c0 2.207031-1.792969 4-4 4zm0 0" fill="#263238"/><path d="m448 384h-52c-2.207031 0-4-1.792969-4-4s1.792969-4 4-4h52c8.824219 0 16-7.175781 16-16v-120c0-8.824219-7.175781-16-16-16h-184c-8.824219 0-16 7.175781-16 16v120c0 8.824219 7.175781 16 16 16h52c2.207031 0 4 1.792969 4 4s-1.792969 4-4 4h-52c-13.230469 0-24-10.769531-24-24v-120c0-13.230469 10.769531-24 24-24h184c13.230469 0 24 10.769531 24 24v120c0 13.230469-10.769531 24-24 24zm0 0" fill="#263238"/><path d="m228 248c-.601562 0-1.207031-.136719-1.785156-.425781l-32-16c-1.976563-.988281-2.773438-3.390625-1.789063-5.367188.988281-1.96875 3.390625-2.792969 5.367188-1.792969l32 16c1.976562.992188 2.773437 3.394532 1.792969 5.371094-.714844 1.398438-2.121094 2.214844-3.585938 2.214844zm0 0" fill="#263238"/><path d="m292 424c-2.207031 0-4-1.792969-4-4v-28.566406c0-2.210938 1.792969-4 4-4s4 1.789062 4 4v28.566406c0 2.207031-1.792969 4-4 4zm0 0" fill="#263238"/><path d="m356.375 320c-11.023438 0-20-8.96875-20-20s8.976562-20 20-20 20 8.96875 20 20-8.976562 20-20 20zm0-32c-6.613281 0-12 5.382812-12 12s5.386719 12 12 12c6.617188 0 12-5.382812 12-12s-5.382812-12-12-12zm0 0" fill="#263238"/><path d="m172 424c-2.207031 0-4-1.792969-4-4v-28h-84c-2.207031 0-4-1.792969-4-4v-56c0-2.207031 1.792969-4 4-4s4 1.792969 4 4v52h84c2.207031 0 4 1.792969 4 4v32c0 2.207031-1.792969 4-4 4zm0 0" fill="#263238"/><path d="m184.742188 372-12.742188-96h-16l-12.742188 96" fill="#40c4ff"/><path d="m184.742188 376c-1.972657 0-3.695313-1.464844-3.957032-3.480469l-12.289062-92.519531h-8.992188l-12.289062 92.519531c-.285156 2.191407-2.269532 3.753907-4.496094 3.449219-2.183594-.296875-3.726562-2.304688-3.4375-4.496094l12.742188-96c.273437-1.984375 1.976562-3.472656 3.976562-3.472656h16c2 0 3.703125 1.488281 3.96875 3.480469l12.742188 96c.296874 2.183593-1.246094 4.191406-3.4375 4.496093-.175782.015626-.351563.023438-.53125.023438zm0 0" fill="#263238"/><path d="m44.183594 424c-1.207032 0-2.40625-.542969-3.191406-1.585938-5.878907-7.789062-8.992188-16.917968-8.992188-26.414062v-95.28125c0-16.773438 9.320312-31.847656 24.328125-39.351562l73.886719-36.941407c1.976562-1 4.378906-.179687 5.371094 1.789063.988281 1.976562.183593 4.378906-1.792969 5.371094l-73.890625 36.941406c-12.277344 6.128906-19.902344 18.464844-19.902344 32.191406v95.28125c0 7.742188 2.550781 15.199219 7.367188 21.585938 1.335937 1.765624.984374 4.269531-.78125 5.605468-.722657.542969-1.5625.808594-2.402344.808594zm0 0" fill="#263238"/><path d="m220 424c-2.207031 0-4-1.792969-4-4v-12c0-8.824219-7.175781-16-16-16h-12c-2.207031 0-4-1.792969-4-4s1.792969-4 4-4h12c13.230469 0 24 10.769531 24 24v12c0 2.207031-1.792969 4-4 4zm0 0" fill="#263238"/><path d="m444 288c-2.207031 0-4-1.792969-4-4v-32c0-2.199219-1.792969-4-4-4h-32c-2.207031 0-4-1.792969-4-4s1.792969-4 4-4h32c6.617188 0 12 5.382812 12 12v32c0 2.207031-1.792969 4-4 4zm0 0" fill="#263238"/><path d="m404 72h-32c-2.207031 0-4-1.792969-4-4s1.792969-4 4-4h32c2.207031 0 4 1.792969 4 4s-1.792969 4-4 4zm0 0" fill="#263238"/><path d="m460 24h-32c-2.207031 0-4-1.792969-4-4s1.792969-4 4-4h32c2.207031 0 4 1.792969 4 4s-1.792969 4-4 4zm0 0" fill="#263238"/><path d="m444 40c-2.207031 0-4-1.792969-4-4v-32c0-2.207031 1.792969-4 4-4s4 1.792969 4 4v32c0 2.207031-1.792969 4-4 4zm0 0" fill="#263238"/><path d="m388 88c-2.207031 0-4-1.792969-4-4v-32c0-2.207031 1.792969-4 4-4s4 1.792969 4 4v32c0 2.207031-1.792969 4-4 4zm0 0" fill="#263238"/></svg>