<svg height="496pt" viewBox="0 0 496 496.712" width="496pt" xmlns="http://www.w3.org/2000/svg"><path d="m336.355469 88c-39.765625 0-72 32.230469-72 72s32.234375 72 72 72c39.769531 0 72-32.230469 72-72s-32.230469-72-72-72zm0 88c-8.839844 0-16-7.160156-16-16s7.160156-16 16-16c8.839843 0 16 7.160156 16 16s-7.160157 16-16 16zm0 0" fill="#f0bc5e"/><path d="m120.355469 400c-10.238281 0-20.078125 4.078125-27.28125 11.28125-13.757813 13.757812-29.519531 25.117188-46.878907 33.839844l-21.839843 10.878906v-56c0-44.558594 22.242187-78.800781 59.28125-103.519531 8-5.28125 12.71875-14.160157 12.71875-23.761719 0-10.320312-5.597657-19.839844-14.640625-24.878906-17.679688-9.839844-32.078125-24.078125-42-40.960938-7.117188-12.078125-11.917969-25.519531-14-39.679687 5.519531-3.359375 27.121094-15.199219 54.640625-15.199219 31.761719 0 79.199219 15.761719 134.558593 16-2.71875 17.519531-9.679687 33.921875-19.917968 48-9.359375 12.878906-21.601563 23.839844-36 31.839844-9.039063 5.039062-14.640625 14.558594-14.640625 24.878906 0 9.601562 4.71875 18.480469 12.71875 23.761719 18.480469 12.320312 33.363281 27.121093 43.523437 44.320312s15.757813 36.960938 15.757813 59.199219v56l-21.839844-10.878906c-17.359375-8.722656-33.121094-20.082032-46.878906-33.839844-7.199219-7.203125-17.039063-11.28125-27.28125-11.28125zm0 0" fill="#f0bc5e"/><path d="m224.355469 448.710938v-48.710938c0-44.664062-21.742188-82.777344-62.878907-110.199219-5.710937-3.808593-9.121093-10.175781-9.121093-17.039062 0-7.433594 4.039062-14.296875 10.527343-17.90625 11.425782-6.351563 21.519532-14.441407 30.089844-23.808594 26.878906 54.441406 81.792969 88.953125 143.382813 88.953125 88.222656 0 160-71.777344 160-160s-71.777344-160-160-160c-42.800781 0-84.09375 17.519531-114.054688 48h-205.945312c-8.824219 0-16 7.175781-16 16v16c0 8.824219 7.175781 16 16 16v54.390625c0 43.378906 23.550781 83.402344 61.472656 104.464844 6.488281 3.609375 10.527344 10.472656 10.527344 17.90625 0 6.855469-3.40625 13.230469-9.121094 17.039062-41.132813 27.421875-62.878906 65.535157-62.878906 110.199219v48.710938c-8.824219 0-16 7.175781-16 16v16c0 8.824218 7.175781 16 16 16h208c8.824219 0 16-7.175782 16-16v-16c0-8.824219-7.175781-16-16-16zm255.59375-296.710938h-55.59375v16h55.59375c-4.042969 73.007812-62.585938 131.550781-135.59375 135.59375v-55.59375h-16v55.703125c-54.734375-2.976563-102.503907-36.253906-124.238281-86.839844 9.75-14.566406 16.261718-31.230469 18.886718-48.863281h25.351563v-16h-24.054688c.007813-.535156.054688-1.070312.054688-1.609375v-54.390625c8.824219 0 16-7.175781 16-16v-16c0-3.207031-.96875-6.191406-2.609375-8.695312 24.851562-23.488282 56.457031-37.058594 90.609375-38.90625v55.601562h16v-55.59375c73.007812 4.042969 131.550781 62.585938 135.59375 135.59375zm-463.59375-88h208l.015625 16h-208.015625zm16 336c0-39.625 18.761719-72.214844 55.761719-96.886719 10.167968-6.785156 16.238281-18.128906 16.238281-30.351562 0-13.242188-7.183594-25.464844-18.765625-31.890625-32.832032-18.246094-53.234375-52.917969-53.234375-90.480469v-22.390625h128v-16h-128v-16h176v16h-32v16h32v22.390625c0 37.5625-20.398438 72.234375-53.230469 90.480469-11.585938 6.425781-18.769531 18.640625-18.769531 31.890625 0 12.222656 6.074219 23.566406 16.242187 30.351562 37 24.671875 55.757813 57.261719 55.757813 96.886719v48.710938h-176zm-16 80.710938v-16h208l.007812 16zm0 0"/><path d="m112.355469 360h16v16h-16zm0 0"/><path d="m112.355469 328h16v16h-16zm0 0"/><path d="m112.355469 296h16v16h-16zm0 0"/><path d="m376.355469 416h-40v80h16v-32h24c13.234375 0 24-10.769531 24-24s-10.765625-24-24-24zm0 32h-24v-16h24c4.417969 0 8 3.585938 8 8s-3.582031 8-8 8zm0 0"/><path d="m472.355469 416c-6.167969 0-11.742188 2.40625-16 6.238281-4.253907-3.839843-9.832031-6.238281-16-6.238281-13.230469 0-24 10.769531-24 24v56h16v-56c0-4.414062 3.585937-8 8-8 4.417969 0 8 3.585938 8 8v56h16v-56c0-4.414062 3.585937-8 8-8 4.417969 0 8 3.585938 8 8v56h16v-56c0-13.230469-10.765625-24-24-24zm0 0"/><path d="m256.355469 432h16v64h16v-80h-32zm0 0"/><path d="m304.355469 480h16v16h-16zm0 0"/><path d="m358.203125 106.144531-13.847656 24v-42.144531h-16v49.472656c-9.289063 3.3125-16 12.113282-16 22.527344 0 13.230469 10.769531 24 24 24 13.234375 0 24-10.769531 24-24 0-5.929688-2.238281-11.296875-5.816407-15.488281l17.527344-30.375zm-21.847656 61.855469c-4.414063 0-8-3.585938-8-8s3.585937-8 8-8c4.417969 0 8 3.585938 8 8s-3.582031 8-8 8zm0 0"/></svg>